<svg preserveAspectRatio="none" width="100%" height="100%" overflow="visible" style="display: block;" viewBox="0 0 467 344" fill="none" xmlns="http://www.w3.org/2000/svg">
<g id="Group">
<g id="Group_2">
<path id="Vector" d="M272.251 221.386C271.021 221.386 269.83 221.276 268.706 221.065C254.944 218.485 242.919 197.956 242.413 197.082C242.259 196.815 242.349 196.474 242.616 196.32C242.883 196.165 243.224 196.255 243.379 196.522C243.499 196.731 255.655 217.482 268.913 219.967C274.662 221.043 282.909 219.204 287.432 212.618C293.045 204.446 291.116 191.807 282.004 177.031C261.874 144.392 228.736 139.96 228.403 139.92C228.098 139.882 227.881 139.605 227.917 139.297C227.955 138.992 228.238 138.772 228.539 138.812C228.877 138.854 262.545 143.356 282.951 176.444C295.581 196.92 291.755 208.294 288.35 213.25C284.379 219.031 277.919 221.384 272.249 221.386H272.251Z" fill="var(--fill-0, black)"/>
<path id="Vector_2" d="M153.636 143.368C153.41 143.368 153.197 143.23 153.114 143.005C153.008 142.716 153.155 142.395 153.444 142.288C160.966 139.494 166.093 138.84 166.308 138.814C166.617 138.774 166.892 138.992 166.93 139.297C166.968 139.603 166.752 139.882 166.444 139.92C166.392 139.926 161.219 140.588 153.831 143.332C153.767 143.356 153.701 143.366 153.636 143.366V143.368Z" fill="var(--fill-0, black)"/>
<g id="Vector_3">
</g>
<path id="Vector_4" d="M197.425 126.269C182.742 126.269 170.837 127.574 170.837 129.186V134.913C170.837 142.714 174.105 150.158 179.849 155.439L191.504 166.156C192.285 166.871 192.894 167.734 193.311 168.682C193.725 169.629 193.948 170.661 193.948 171.721V185.628C193.948 186.817 194.907 187.774 196.094 187.774C196.69 187.774 197.226 187.535 197.611 187.144C198.001 186.758 198.242 186.218 198.242 185.626V179.989C198.242 179.259 198.838 178.663 199.575 178.663C199.938 178.663 200.271 178.512 200.512 178.273C200.753 178.034 200.902 177.699 200.902 177.332V171.723C200.902 169.609 201.789 167.592 203.345 166.158L215.005 155.441C220.742 150.159 224.01 142.716 224.01 134.915V129.188C224.01 127.576 212.11 126.271 197.427 126.271L197.425 126.269Z" fill="var(--fill-0, #F7FBFF)"/>
<path id="Vector_5" d="M197.425 235.109C182.742 235.109 170.837 236.419 170.837 238.031V313.867H224.008V238.031C224.008 236.419 212.108 235.109 197.425 235.109Z" fill="var(--fill-0, #F7FBFF)"/>
<path id="Vector_6" d="M244.8 337.757H231.262V316.095C231.262 314.863 230.264 313.865 229.031 313.865H165.82C164.587 313.865 163.59 314.863 163.59 316.095V337.757H150.051C148.481 337.757 147.208 339.03 147.208 340.599C147.208 342.169 148.481 343.442 150.051 343.442H244.802C246.372 343.442 247.645 342.169 247.645 340.599C247.645 339.03 246.372 337.757 244.802 337.757H244.8Z" fill="var(--fill-0, #BFDBFE)"/>
<g id="Group_3">
<path id="Vector_7" d="M183.336 113.824C185.86 113.824 187.907 111.777 187.907 109.253C187.907 106.728 185.86 104.682 183.336 104.682C180.811 104.682 178.765 106.728 178.765 109.253C178.765 111.777 180.811 113.824 183.336 113.824Z" fill="var(--fill-0, black)"/>
<path id="Vector_8" d="M211.512 113.824C214.036 113.824 216.083 111.777 216.083 109.253C216.083 106.728 214.036 104.682 211.512 104.682C208.987 104.682 206.94 106.728 206.94 109.253C206.94 111.777 208.987 113.824 211.512 113.824Z" fill="var(--fill-0, black)"/>
<path id="Vector_9" d="M197.423 120.311C195.953 120.311 194.466 119.414 194.466 117.702C194.466 117.24 194.839 116.865 195.303 116.865C195.766 116.865 196.14 117.24 196.14 117.702C196.14 118.627 197.37 118.639 197.425 118.639C197.479 118.639 198.709 118.629 198.709 117.702C198.709 117.24 199.083 116.865 199.547 116.865C200.01 116.865 200.384 117.24 200.384 117.702C200.384 119.414 198.896 120.311 197.427 120.311H197.423Z" fill="var(--fill-0, black)"/>
</g>
<path id="Vector_10" d="M244.8 0H197.425H150.049C148.479 0 147.206 1.2727 147.206 2.84248C147.206 4.41227 148.479 5.68496 150.049 5.68496H163.588V27.3468C163.588 28.5794 164.587 29.577 165.818 29.577H229.029C230.262 29.577 231.26 28.5794 231.26 27.3468V5.68496H244.798C246.368 5.68496 247.641 4.41227 247.641 2.84248C247.641 1.2727 246.368 0 244.798 0H244.8Z" fill="var(--fill-0, #BFDBFE)"/>
<g id="Group_4">
<path id="Vector_11" d="M229.931 338.315H189.077C188.77 338.315 188.519 338.066 188.519 337.757C188.519 337.448 188.768 337.199 189.077 337.199H229.931C230.238 337.199 230.489 337.448 230.489 337.757C230.489 338.066 230.24 338.315 229.931 338.315Z" fill="var(--fill-0, black)"/>
<path id="Vector_12" d="M180.003 338.315H165.918C165.611 338.315 165.36 338.066 165.36 337.757C165.36 337.448 165.609 337.199 165.918 337.199H180.003C180.31 337.199 180.561 337.448 180.561 337.757C180.561 338.066 180.312 338.315 180.003 338.315Z" fill="var(--fill-0, black)"/>
<path id="Vector_13" d="M215.378 187.595L203.72 176.874C202.283 175.553 201.458 173.674 201.458 171.721C201.458 169.768 202.283 167.889 203.72 166.568L215.378 155.846C221.218 150.477 224.566 142.847 224.566 134.913V30.4543C224.566 30.1451 224.318 29.8962 224.008 29.8962C223.699 29.8962 223.45 30.1451 223.45 30.4543V129.116C223.288 129.281 222.019 130.222 213.708 130.935C213.401 130.961 213.174 131.232 213.2 131.537C213.224 131.828 213.469 132.047 213.756 132.047C213.772 132.047 213.788 132.047 213.804 132.045C219.512 131.555 222.192 130.945 223.45 130.391V134.913C223.45 142.535 220.232 149.864 214.621 155.023L202.963 165.745C201.297 167.277 200.342 169.455 200.342 171.719C200.342 173.983 201.297 176.161 202.963 177.693L214.621 188.414C220.232 193.574 223.45 200.905 223.45 208.525V237.963C222.627 238.963 212.999 240.388 197.425 240.388C195.06 240.388 192.707 240.354 190.426 240.286C190.121 240.294 189.862 240.519 189.852 240.828C189.842 241.135 190.085 241.392 190.392 241.402C192.683 241.47 195.048 241.504 197.423 241.504C204.545 241.504 211.242 241.199 216.281 240.647C220.323 240.203 222.39 239.702 223.45 239.24V312.628C223.45 312.938 223.699 313.186 224.008 313.186C224.318 313.186 224.566 312.938 224.566 312.628V208.525C224.566 200.591 221.218 192.961 215.378 187.591V187.595Z" fill="var(--fill-0, black)"/>
<path id="Vector_14" d="M203.491 131.473C201.532 131.523 199.49 131.549 197.425 131.549C181.856 131.549 172.228 130.124 171.395 129.12V30.4543C171.395 30.1451 171.146 29.8962 170.837 29.8962C170.528 29.8962 170.279 30.1451 170.279 30.4543V129.182C170.279 129.182 170.279 129.182 170.279 129.184C170.279 129.204 170.279 129.226 170.279 129.248V134.913C170.279 142.847 173.627 150.477 179.467 155.846L191.125 166.568C192.562 167.889 193.388 169.768 193.388 171.721C193.388 173.674 192.562 175.553 191.125 176.874L179.467 187.595C173.627 192.965 170.279 200.595 170.279 208.529V238.029C170.279 238.029 170.279 238.031 170.279 238.033C170.279 238.055 170.279 238.08 170.279 238.106V312.632C170.279 312.941 170.528 313.19 170.837 313.19C171.146 313.19 171.395 312.941 171.395 312.632V239.248C172.756 239.846 175.781 240.51 182.519 241.008C182.533 241.008 182.547 241.008 182.561 241.008C182.85 241.008 183.095 240.786 183.117 240.492C183.139 240.185 182.91 239.918 182.603 239.894C174.527 239.296 171.768 238.389 171.397 237.965V208.527C171.397 200.905 174.615 193.576 180.226 188.416L191.884 177.695C193.55 176.163 194.506 173.985 194.506 171.721C194.506 169.457 193.55 167.279 191.884 165.747L180.226 155.025C174.615 149.866 171.397 142.535 171.397 134.915V130.397C172.457 130.858 174.525 131.36 178.566 131.806C183.609 132.36 190.308 132.665 197.427 132.665C199.502 132.665 201.552 132.639 203.524 132.589C203.831 132.581 204.076 132.324 204.066 132.017C204.058 131.709 203.799 131.457 203.493 131.475L203.491 131.473Z" fill="var(--fill-0, black)"/>
<path id="Vector_15" d="M196.092 188.332C194.6 188.332 193.387 187.12 193.387 185.628V181.652C193.387 181.342 193.636 181.094 193.946 181.094C194.255 181.094 194.504 181.342 194.504 181.652V185.628C194.504 186.503 195.216 187.218 196.094 187.218C196.521 187.218 196.919 187.053 197.214 186.754C197.515 186.459 197.684 186.05 197.684 185.63V184.715C197.684 184.406 197.933 184.157 198.242 184.157C198.551 184.157 198.8 184.406 198.8 184.715V185.63C198.8 186.349 198.509 187.045 198.003 187.545C197.503 188.053 196.822 188.336 196.094 188.336L196.092 188.332Z" fill="var(--fill-0, black)"/>
<path id="Vector_16" d="M199.573 179.221C199.266 179.221 199.015 178.972 199.015 178.663C199.015 178.353 199.264 178.105 199.573 178.105C199.773 178.105 199.97 178.022 200.115 177.878C200.261 177.731 200.342 177.536 200.342 177.33V176.739C200.342 176.43 200.591 176.181 200.9 176.181C201.209 176.181 201.458 176.43 201.458 176.739V177.33C201.458 177.834 201.261 178.309 200.904 178.667C200.552 179.018 200.067 179.221 199.573 179.221Z" fill="var(--fill-0, black)"/>
<path id="Vector_17" d="M221.162 6.24302H176.739C176.432 6.24302 176.181 5.99409 176.181 5.68495C176.181 5.37581 176.43 5.1269 176.739 5.1269H221.162C221.469 5.1269 221.72 5.37581 221.72 5.68495C221.72 5.99409 221.471 6.24302 221.162 6.24302Z" fill="var(--fill-0, black)"/>
</g>
</g>
<g id="Group_5">
<path id="Vector_18" d="M459.516 189.32H7.48408C3.35074 189.32 0 192.67 0 196.803C0 200.937 3.35074 204.287 7.48408 204.287H459.516C463.649 204.287 467 200.937 467 196.803C467 192.67 463.649 189.32 459.516 189.32Z" fill="var(--fill-0, #6B7180)"/>
<g id="Group_6">
<path id="Vector_19" d="M341.296 204.257C341.224 204.257 341.15 204.243 341.08 204.213C338.096 202.95 336.169 200.043 336.169 196.803C336.169 193.563 338.01 190.801 340.859 189.492C341.138 189.366 341.469 189.486 341.598 189.767C341.726 190.047 341.604 190.378 341.324 190.506C338.871 191.632 337.285 194.105 337.285 196.803C337.285 199.501 338.946 202.099 341.515 203.185C341.798 203.305 341.931 203.633 341.812 203.916C341.722 204.128 341.515 204.257 341.298 204.257H341.296Z" fill="var(--fill-0, #374151)"/>
<path id="Vector_20" d="M345.588 344C345.281 344 345.03 343.751 345.03 343.442V204.287C345.03 203.978 345.279 203.729 345.588 203.729C345.898 203.729 346.147 203.978 346.147 204.287V343.442C346.147 343.751 345.898 344 345.588 344Z" fill="var(--fill-0, #374151)"/>
<path id="Vector_21" d="M458.137 344C457.83 344 457.579 343.751 457.579 343.442V204.287C457.579 203.978 457.828 203.729 458.137 203.729C458.446 203.729 458.695 203.978 458.695 204.287V343.442C458.695 343.751 458.446 344 458.137 344Z" fill="var(--fill-0, #374151)"/>
<path id="Vector_22" d="M121.413 344C121.106 344 120.855 343.751 120.855 343.442V204.287C120.855 203.978 121.104 203.729 121.413 203.729C121.723 203.729 121.972 203.978 121.972 204.287V343.442C121.972 343.751 121.723 344 121.413 344Z" fill="var(--fill-0, #374151)"/>
<path id="Vector_23" d="M8.86325 344C8.5561 344 8.30516 343.751 8.30516 343.442V204.287C8.30516 203.978 8.55409 203.729 8.86325 203.729C9.17241 203.729 9.42135 203.978 9.42135 204.287V343.442C9.42135 343.751 9.17241 344 8.86325 344Z" fill="var(--fill-0, #374151)"/>
</g>
</g>
<g id="Group_7">
<path id="Vector_24" d="M220.174 181.652H175.711L148.812 114.141C148.304 112.868 147.074 112.033 145.705 112.033H31.5825C30.0066 112.033 28.9265 113.625 29.5107 115.088L59.0877 189.32H220.174C222.292 189.32 224.008 187.604 224.008 185.486C224.008 183.368 222.292 181.652 220.174 181.652Z" fill="var(--fill-0, #E5E7EB)"/>
<path id="Vector_25" d="M177.239 186.044C177.018 186.044 176.807 185.911 176.721 185.692L175.203 181.884C175.089 181.599 175.229 181.274 175.514 181.16C175.802 181.043 176.125 181.186 176.239 181.471L177.757 185.279C177.871 185.564 177.731 185.889 177.446 186.004C177.377 186.032 177.309 186.044 177.239 186.044Z" fill="var(--fill-0, black)"/>
</g>
<path id="Vector_26" d="M298.63 113.518C295.513 113.518 292.977 110.983 292.977 107.866C292.977 104.748 295.513 102.213 298.63 102.213C301.748 102.213 304.284 104.748 304.284 107.866C304.284 110.983 301.748 113.518 298.63 113.518ZM298.63 103.329C296.129 103.329 294.093 105.364 294.093 107.866C294.093 110.367 296.129 112.402 298.63 112.402C301.132 112.402 303.167 110.367 303.167 107.866C303.167 105.364 301.132 103.329 298.63 103.329Z" fill="var(--fill-0, black)"/>
<g id="Group_8">
<path id="Vector_27" d="M396.947 156.796C396.64 156.796 396.389 156.547 396.389 156.238V152.705C396.389 152.396 396.638 152.147 396.947 152.147C397.256 152.147 397.505 152.396 397.505 152.705V156.238C397.505 156.547 397.256 156.796 396.947 156.796Z" fill="var(--fill-0, black)"/>
<path id="Vector_28" d="M396.947 149.595C396.64 149.595 396.389 149.347 396.389 149.037V145.504C396.389 145.195 396.638 144.946 396.947 144.946C397.256 144.946 397.505 145.195 397.505 145.504V149.037C397.505 149.347 397.256 149.595 396.947 149.595Z" fill="var(--fill-0, black)"/>
<path id="Vector_29" d="M395.112 151.43H391.579C391.272 151.43 391.021 151.181 391.021 150.872C391.021 150.563 391.27 150.314 391.579 150.314H395.112C395.419 150.314 395.67 150.563 395.67 150.872C395.67 151.181 395.421 151.43 395.112 151.43Z" fill="var(--fill-0, black)"/>
<path id="Vector_30" d="M402.313 151.43H398.78C398.473 151.43 398.222 151.181 398.222 150.872C398.222 150.563 398.471 150.314 398.78 150.314H402.313C402.62 150.314 402.871 150.563 402.871 150.872C402.871 151.181 402.622 151.43 402.313 151.43Z" fill="var(--fill-0, black)"/>
</g>
<g id="Group_9">
<path id="Vector_31" d="M86.2014 66.8002C85.8942 66.8002 85.6433 66.5513 85.6433 66.2422V60.3103C85.6433 60.0012 85.8922 59.7522 86.2014 59.7522C86.5106 59.7522 86.7595 60.0012 86.7595 60.3103V66.2422C86.7595 66.5513 86.5106 66.8002 86.2014 66.8002Z" fill="var(--fill-0, black)"/>
<path id="Vector_32" d="M86.2014 54.7137C85.8942 54.7137 85.6433 54.4648 85.6433 54.1556V48.2258C85.6433 47.9166 85.8922 47.6677 86.2014 47.6677C86.5106 47.6677 86.7595 47.9166 86.7595 48.2258V54.1556C86.7595 54.4648 86.5106 54.7137 86.2014 54.7137Z" fill="var(--fill-0, black)"/>
<path id="Vector_33" d="M83.1238 57.793H77.1936C76.8864 57.793 76.6355 57.5441 76.6355 57.235C76.6355 56.9258 76.8844 56.6769 77.1936 56.6769H83.1238C83.431 56.6769 83.6819 56.9258 83.6819 57.235C83.6819 57.5441 83.433 57.793 83.1238 57.793Z" fill="var(--fill-0, black)"/>
<path id="Vector_34" d="M95.2112 57.793H89.2789C88.9718 57.793 88.7208 57.5441 88.7208 57.235C88.7208 56.9258 88.9698 56.6769 89.2789 56.6769H95.2112C95.5183 56.6769 95.7693 56.9258 95.7693 57.235C95.7693 57.5441 95.5204 57.793 95.2112 57.793Z" fill="var(--fill-0, black)"/>
</g>
</g>
</svg>
